<svg width="128" height="128" viewBox="0 0 128 128" xmlns="http://www.w3.org/2000/svg">
    <path style="fill:#ff6600" d="m 44.329314,24 c -5.35586,0 -9.63438,1.355215 -12.836854,4.065643 -3.174865,2.683051 -4.763591,6.625492 -4.763591,11.827327 v 6.036859 c 0,4.873304 -1.089851,8.268824 -3.270845,10.185287 -2.180995,1.889083 -5.700956,2.833628 -10.559881,2.833628 H 10 v 10.102511 h 2.898143 c 4.858925,0 8.378886,0.957589 10.559881,2.874056 2.180994,1.889087 3.270845,5.27156 3.270845,10.144856 v 6.036862 c 0,5.201832 1.588726,9.144272 4.763591,11.827326 C 34.694934,102.64479 38.973454,104 44.329314,104 h 11.34799 v -9.199673 h -4.720891 c -1.65645,0 -3.162357,-0.123212 -4.515127,-0.3696 -1.352767,-0.219023 -2.470869,-0.683811 -3.35431,-1.395639 C 42.148318,92.323259 41.444328,91.281606 40.974998,89.912703 40.505668,88.571182 40.2723,86.833314 40.2723,84.697824 v -4.475671 c 0,-3.832929 -1.091788,-7.036162 -3.272785,-9.609703 -2.153386,-2.573533 -5.230979,-4.613839 -9.23407,-6.119634 v -0.985624 c 4.003091,-1.505791 7.080684,-3.546101 9.23407,-6.119638 C 39.180512,54.814017 40.2723,51.61078 40.2723,47.777852 V 43.30218 c 0,-2.135486 0.233349,-3.873354 0.702698,-5.214879 0.46933,-1.368905 1.17332,-2.410556 2.111978,-3.122386 0.911044,-0.684451 2.029152,-1.149236 3.35431,-1.395639 1.35277,-0.246402 2.858677,-0.369603 4.515127,-0.369603 h 4.720891 V 24 Z m 27.995329,0 v 9.199672 h 4.720886 c 1.656454,0 3.147259,0.123201 4.472422,0.369604 1.352768,0.246403 2.48403,0.711188 3.395074,1.395639 0.93866,0.71183 1.642647,1.753481 2.111977,3.122386 0.469327,1.341525 0.704636,3.079393 0.704636,5.214879 v 4.475672 c 0,3.832928 1.076697,7.036165 3.230086,9.609702 2.180997,2.573537 5.271743,4.613847 9.274836,6.119638 v 0.985614 c -4.003093,1.505793 -7.093839,3.546099 -9.274836,6.119637 -2.153389,2.573541 -3.230086,5.776773 -3.230086,9.609701 v 4.475672 c 0,2.13549 -0.235274,3.873358 -0.704636,5.214879 -0.46933,1.368904 -1.173317,2.410556 -2.111977,3.122385 -0.911044,0.684453 -2.042306,1.149237 -3.395074,1.39564 -1.325163,0.246425 -2.815968,0.3696 -4.472422,0.3696 h -4.720886 v 9.19967 h 11.346048 c 5.355855,0 9.621222,-1.35521 12.79609,-4.065643 3.202473,-2.683053 4.804349,-6.625493 4.804349,-11.827325 V 82.07016 c 0,-4.873296 1.08985,-8.25577 3.27085,-10.144857 2.18099,-1.916466 5.70096,-2.874055 10.55988,-2.874055 H 118 v -10.1025 h -2.89814 c -4.85892,0 -8.37889,-0.944545 -10.55988,-2.833629 -2.181,-1.916462 -3.27085,-5.311982 -3.27085,-10.185286 V 39.89297 c 0,-5.201834 -1.601876,-9.144276 -4.804349,-11.827327 C 93.291913,25.355214 89.026546,24 83.670691,24 Z" />
</svg>
